# xmcd CD database file
#
# Track frame offsets:
#	150
#	18132
#	37656
#	58959
#	74458
#	95098
#	107237
#
# Disc length: 1562 seconds
#
# Revision: 0
# Processed by: cddbd v1.5.2PL0 Copyright (c) Steve Scherf et al.
# Submitted via: CDex 2.19
#
DISCID=59061807
DTITLE=Kurt Buschmann - Hank Bullock and The DeanMartins
DYEAR=2001
DGENRE=Blues
TTITLE0=Proud As A S'hip
TTITLE1=Everything 's Money
TTITLE2=Blues Is A Woman
TTITLE3=Buddies and Pals
TTITLE4=Bad Luck Wrong Place
TTITLE5=Pebble On The Beach
TTITLE6=Who 's Gotta Do It
EXTD=YEAR: 2001
EXTT0=
EXTT1=
EXTT2=
EXTT3=
EXTT4=
EXTT5=
EXTT6=
PLAYORDER=
